<?xml version="1.0" encoding="UTF-8" standalone="no"?>
<!DOCTYPE svg PUBLIC "-//W3C//DTD SVG 1.1//EN"
 "http://www.w3.org/Graphics/SVG/1.1/DTD/svg11.dtd">
<!-- Generated by graphviz version 2.26.3 (20100126.1600)
 -->
<!-- Title: packages_etos Pages: 1 -->
<svg width="209pt" height="332pt"
 viewBox="0.00 0.00 208.74 332.00" xmlns="http://www.w3.org/2000/svg" xmlns:xlink="http://www.w3.org/1999/xlink">
<g id="graph1" class="graph" transform="scale(1 1) rotate(0) translate(4 328)">
<title>packages_etos</title>
<polygon fill="white" stroke="white" points="-4,5 -4,-328 205.736,-328 205.736,5 -4,5"/>
<!-- 3 -->
<g id="node1" class="node"><title>3</title>
<polygon fill="none" stroke="black" points="126.736,-180 32.7355,-180 32.7355,-144 126.736,-144 126.736,-180"/>
<text text-anchor="middle" x="79.7355" y="-158.4" font-family="Times Roman,serif" font-size="14.00">Transaction</text>
</g>
<!-- 9 -->
<g id="node2" class="node"><title>9</title>
<polygon fill="none" stroke="black" points="74.7355,-324 10.7355,-324 10.7355,-288 74.7355,-288 74.7355,-324"/>
<text text-anchor="middle" x="42.7355" y="-302.4" font-family="Times Roman,serif" font-size="14.00">XValue</text>
</g>
<!-- 3&#45;&gt;9 -->
<g id="edge4" class="edge"><title>3&#45;&gt;9</title>
<path fill="none" stroke="black" d="M73.0466,-180.336C69.4069,-190.714 64.9955,-203.983 61.7355,-216 56.1695,-236.518 51.2544,-260.034 47.8184,-277.882"/>
<polygon fill="black" stroke="black" points="45.9251,-287.927 43.3552,-277.266 46.8512,-283.013 47.7774,-278.1 47.7774,-278.1 47.7774,-278.1 46.8512,-283.013 52.1995,-278.933 45.9251,-287.927 45.9251,-287.927"/>
</g>
<!-- 18 -->
<g id="node5" class="node"><title>18</title>
<polygon fill="none" stroke="black" points="128.736,-252 70.7355,-252 70.7355,-216 128.736,-216 128.736,-252"/>
<text text-anchor="middle" x="99.7355" y="-230.4" font-family="Times Roman,serif" font-size="14.00">Entity</text>
</g>
<!-- 3&#45;&gt;18 -->
<g id="edge2" class="edge"><title>3&#45;&gt;18</title>
<path fill="none" stroke="black" d="M84.7824,-180.169C86.9449,-187.954 89.5208,-197.227 91.9203,-205.865"/>
<polygon fill="black" stroke="black" points="94.6207,-215.587 87.6084,-207.156 93.2825,-210.769 91.9442,-205.952 91.9442,-205.952 91.9442,-205.952 93.2825,-210.769 96.2801,-204.747 94.6207,-215.587 94.6207,-215.587"/>
</g>
<!-- 11 -->
<g id="node3" class="node"><title>11</title>
<polygon fill="none" stroke="black" points="77.7355,-108 23.7355,-108 23.7355,-72 77.7355,-72 77.7355,-108"/>
<text text-anchor="middle" x="50.7355" y="-86.4" font-family="Times Roman,serif" font-size="14.00">Etos</text>
</g>
<!-- 11&#45;&gt;3 -->
<g id="edge6" class="edge"><title>11&#45;&gt;3</title>
<path fill="none" stroke="black" d="M58.0535,-108.169C61.2232,-116.038 65.0055,-125.429 68.5169,-134.147"/>
<polygon fill="black" stroke="black" points="72.3191,-143.587 64.4088,-135.992 70.451,-138.949 68.5829,-134.311 68.5829,-134.311 68.5829,-134.311 70.451,-138.949 72.7571,-132.63 72.3191,-143.587 72.3191,-143.587"/>
</g>
<!-- 11&#45;&gt;9 -->
<g id="edge8" class="edge"><title>11&#45;&gt;9</title>
<path fill="none" stroke="black" d="M38.9847,-108.176C33.1497,-118.286 26.7217,-131.351 23.7355,-144 12.816,-190.256 24.381,-245.492 33.6419,-278.051"/>
<polygon fill="black" stroke="black" points="36.5363,-287.785 29.3727,-279.482 35.1112,-282.992 33.6861,-278.2 33.6861,-278.2 33.6861,-278.2 35.1112,-282.992 37.9995,-276.917 36.5363,-287.785 36.5363,-287.785"/>
</g>
<!-- 15 -->
<g id="node4" class="node"><title>15</title>
<polygon fill="none" stroke="black" points="200.736,-252 146.736,-252 146.736,-216 200.736,-216 200.736,-252"/>
<text text-anchor="middle" x="173.736" y="-230.4" font-family="Times Roman,serif" font-size="14.00">Actor</text>
</g>
<!-- 15&#45;&gt;9 -->
<g id="edge10" class="edge"><title>15&#45;&gt;9</title>
<path fill="none" stroke="black" d="M146.592,-248.918C128.444,-258.893 104.229,-272.202 83.7472,-283.459"/>
<polygon fill="black" stroke="black" points="74.9312,-288.305 81.5272,-279.544 79.313,-285.896 83.6947,-283.488 83.6947,-283.488 83.6947,-283.488 79.313,-285.896 85.8622,-287.432 74.9312,-288.305 74.9312,-288.305"/>
</g>
<!-- 18&#45;&gt;9 -->
<g id="edge12" class="edge"><title>18&#45;&gt;9</title>
<path fill="none" stroke="black" d="M85.352,-252.169C78.7869,-260.461 70.8848,-270.443 63.6778,-279.547"/>
<polygon fill="black" stroke="black" points="57.3127,-287.587 59.9916,-276.953 60.4162,-283.666 63.5198,-279.746 63.5198,-279.746 63.5198,-279.746 60.4162,-283.666 67.048,-282.539 57.3127,-287.587 57.3127,-287.587"/>
</g>
<!-- 30 -->
<g id="node6" class="node"><title>30</title>
<polygon fill="none" stroke="black" points="77.7355,-36 23.7355,-36 23.7355,-1.77636e-14 77.7355,-3.55271e-15 77.7355,-36"/>
<text text-anchor="middle" x="50.7355" y="-14.4" font-family="Times Roman,serif" font-size="14.00">test</text>
</g>
<!-- 30&#45;&gt;9 -->
<g id="edge18" class="edge"><title>30&#45;&gt;9</title>
<path fill="none" stroke="black" d="M34.7451,-36.0831C27.0817,-45.9629 18.719,-58.8437 14.7355,-72 -8.45041,-148.578 -0.557858,-174.108 17.7355,-252 19.8407,-260.964 23.5102,-270.231 27.3996,-278.504"/>
<polygon fill="black" stroke="black" points="31.9859,-287.682 23.4903,-280.748 29.7508,-283.209 27.5157,-278.737 27.5157,-278.737 27.5157,-278.737 29.7508,-283.209 31.541,-276.725 31.9859,-287.682 31.9859,-287.682"/>
</g>
<!-- 30&#45;&gt;11 -->
<g id="edge14" class="edge"><title>30&#45;&gt;11</title>
<path fill="none" stroke="black" d="M50.7355,-36.1686C50.7355,-43.869 50.7355,-53.0257 50.7355,-61.5834"/>
<polygon fill="black" stroke="black" points="50.7355,-71.5867 46.2356,-61.5867 50.7356,-66.5867 50.7356,-61.5867 50.7356,-61.5867 50.7356,-61.5867 50.7356,-66.5867 55.2356,-61.5868 50.7355,-71.5867 50.7355,-71.5867"/>
</g>
<!-- 30&#45;&gt;18 -->
<g id="edge16" class="edge"><title>30&#45;&gt;18</title>
<path fill="none" stroke="black" d="M68.2615,-36.1769C89.0485,-59.1267 122.542,-100.85 135.736,-144 140.414,-159.301 140.372,-164.687 135.736,-180 132.779,-189.764 127.41,-199.377 121.706,-207.724"/>
<polygon fill="black" stroke="black" points="115.726,-215.917 117.986,-205.187 118.674,-211.878 121.621,-207.839 121.621,-207.839 121.621,-207.839 118.674,-211.878 125.256,-210.492 115.726,-215.917 115.726,-215.917"/>
</g>
</g>
</svg>
