<?xml version="1.0" encoding="UTF-8" standalone="no"?>
<!-- Created with Bouml (http://bouml.free.fr/) -->
<!DOCTYPE svg PUBLIC "-//W3C//DTD SVG 1.1//EN" "http://www.w3.org/Graphics/SVG/1.1/DTD/svg11.dtd">
<svg width="806" height="641" version="1.1" xmlns="http://www.w3.org/2000/svg">
<g>
	<rect fill="#808080" stroke="none" stroke-opacity="1" x="201" y="407" width="3" height="41" />
	<rect fill="#808080" stroke="none" stroke-opacity="1" x="75" y="445" width="129" height="3" />
	<rect fill="#ffffc0" stroke="black" stroke-width="1" stroke-opacity="1" x="71" y="403" width="130" height="42" />
	<text font-family="Helvetica" font-size="11" fill="#000000" xml:space="preserve" font-weight="bold" font-style="italic" text-anchor="middle" x="136" y="416">TransactionEntity</text>
	<line stroke="black" stroke-opacity="1" x1="71" y1="426" x2="201" y2="426" />
	<line stroke="black" stroke-opacity="1" x1="71" y1="435" x2="201" y2="435" />
</g>
<g>
	<rect fill="#808080" stroke="none" stroke-opacity="1" x="217" y="157" width="3" height="41" />
	<rect fill="#808080" stroke="none" stroke-opacity="1" x="173" y="195" width="47" height="3" />
	<rect fill="#ffdca8" stroke="black" stroke-width="1" stroke-opacity="1" x="169" y="153" width="48" height="42" />
	<text font-family="Helvetica" font-size="11" fill="#000000" xml:space="preserve" font-weight="bold" text-anchor="middle" x="193" y="166">E_Car</text>
	<line stroke="black" stroke-opacity="1" x1="169" y1="176" x2="217" y2="176" />
	<line stroke="black" stroke-opacity="1" x1="169" y1="185" x2="217" y2="185" />
</g>
<g>
	<rect fill="#808080" stroke="none" stroke-opacity="1" x="176" y="237" width="3" height="89" />
	<rect fill="#808080" stroke="none" stroke-opacity="1" x="108" y="323" width="71" height="3" />
	<rect fill="#ffffc0" stroke="black" stroke-width="1" stroke-opacity="1" x="104" y="233" width="72" height="90" />
	<text font-family="Helvetica" font-size="11" fill="#000000" xml:space="preserve" font-weight="bold" font-style="italic" text-anchor="middle" x="140" y="246">Entity</text>
	<line stroke="black" stroke-opacity="1" x1="104" y1="256" x2="176" y2="256" />
	<text font-family="Helvetica" font-size="11" fill="#000000" xml:space="preserve" font-weight="bold" x="108" y="269">+</text>
	<text font-family="Helvetica" font-size="11" fill="#000000" xml:space="preserve" x="124" y="269">id</text>
	<line stroke="black" stroke-opacity="1" x1="104" y1="279" x2="176" y2="279" />
	<text font-family="Helvetica" font-size="11" fill="#000000" xml:space="preserve" font-weight="bold" x="108" y="292">-</text>
	<text font-family="Helvetica" font-size="11" fill="#000000" xml:space="preserve" x="124" y="292">hold()</text>
	<text font-family="Helvetica" font-size="11" fill="#000000" xml:space="preserve" font-weight="bold" x="108" y="313">~</text>
	<text font-family="Helvetica" font-size="11" fill="#000000" xml:space="preserve" x="124" y="313">action()</text>
</g>
<g>
	<rect fill="#808080" stroke="none" stroke-opacity="1" x="521" y="79" width="3" height="41" />
	<rect fill="#808080" stroke="none" stroke-opacity="1" x="403" y="117" width="121" height="3" />
	<rect fill="#dfffdf" stroke="black" stroke-width="1" stroke-opacity="1" x="399" y="75" width="122" height="42" />
	<text font-family="Helvetica" font-size="11" fill="#000000" xml:space="preserve" font-weight="bold" text-anchor="middle" x="460" y="88">SimPy.X.Process</text>
	<line stroke="black" stroke-opacity="1" x1="399" y1="98" x2="521" y2="98" />
	<line stroke="black" stroke-opacity="1" x1="399" y1="107" x2="521" y2="107" />
</g>
<g>
	<rect fill="#808080" stroke="none" stroke-opacity="1" x="373" y="405" width="3" height="75" />
	<rect fill="#808080" stroke="none" stroke-opacity="1" x="281" y="477" width="95" height="3" />
	<rect fill="#ffffc0" stroke="black" stroke-width="1" stroke-opacity="1" x="277" y="401" width="96" height="76" />
	<text font-family="Helvetica" font-size="11" fill="#000000" xml:space="preserve" font-weight="bold" font-style="italic" text-anchor="middle" x="325" y="414">SharedEntity</text>
	<line stroke="black" stroke-opacity="1" x1="277" y1="424" x2="373" y2="424" />
	<line stroke="black" stroke-opacity="1" x1="277" y1="433" x2="373" y2="433" />
	<text font-family="Helvetica" font-size="11" fill="#000000" xml:space="preserve" font-weight="bold" x="281" y="446">+</text>
	<text font-family="Helvetica" font-size="11" fill="#000000" xml:space="preserve" x="297" y="446">request()</text>
	<text font-family="Helvetica" font-size="11" fill="#000000" xml:space="preserve" font-weight="bold" x="281" y="467">+</text>
	<text font-family="Helvetica" font-size="11" fill="#000000" xml:space="preserve" x="297" y="467">release()</text>
</g>
<g>
	<rect fill="#808080" stroke="none" stroke-opacity="1" x="76" y="530" width="3" height="41" />
	<rect fill="#808080" stroke="none" stroke-opacity="1" x="30" y="568" width="49" height="3" />
	<rect fill="#ffdca8" stroke="black" stroke-width="1" stroke-opacity="1" x="26" y="526" width="50" height="42" />
	<text font-family="Helvetica" font-size="11" fill="#000000" xml:space="preserve" font-weight="bold" text-anchor="middle" x="51" y="539">Pause</text>
	<line stroke="black" stroke-opacity="1" x1="26" y1="549" x2="76" y2="549" />
	<line stroke="black" stroke-opacity="1" x1="26" y1="558" x2="76" y2="558" />
</g>
<g>
	<rect fill="#808080" stroke="none" stroke-opacity="1" x="409" y="530" width="3" height="41" />
	<rect fill="#808080" stroke="none" stroke-opacity="1" x="299" y="568" width="113" height="3" />
	<rect fill="#ffffc0" stroke="black" stroke-width="1" stroke-opacity="1" x="295" y="526" width="114" height="42" />
	<text font-family="Helvetica" font-size="11" fill="#000000" xml:space="preserve" font-weight="bold" font-style="italic" text-anchor="middle" x="352" y="539">ResourceEntity</text>
	<line stroke="black" stroke-opacity="1" x1="295" y1="549" x2="409" y2="549" />
	<line stroke="black" stroke-opacity="1" x1="295" y1="558" x2="409" y2="558" />
</g>
<g>
	<rect fill="#808080" stroke="none" stroke-opacity="1" x="279" y="530" width="3" height="41" />
	<rect fill="#808080" stroke="none" stroke-opacity="1" x="195" y="568" width="87" height="3" />
	<rect fill="#ffdca8" stroke="black" stroke-width="1" stroke-opacity="1" x="191" y="526" width="88" height="42" />
	<text font-family="Helvetica" font-size="11" fill="#000000" xml:space="preserve" font-weight="bold" text-anchor="middle" x="235" y="539">Connection</text>
	<line stroke="black" stroke-opacity="1" x1="191" y1="549" x2="279" y2="549" />
	<line stroke="black" stroke-opacity="1" x1="191" y1="558" x2="279" y2="558" />
</g>
<g>
	<rect fill="#808080" stroke="none" stroke-opacity="1" x="528" y="587" width="3" height="41" />
	<rect fill="#808080" stroke="none" stroke-opacity="1" x="444" y="625" width="87" height="3" />
	<rect fill="#ffdca8" stroke="black" stroke-width="1" stroke-opacity="1" x="440" y="583" width="88" height="42" />
	<text font-family="Helvetica" font-size="11" fill="#000000" xml:space="preserve" font-weight="bold" text-anchor="middle" x="484" y="596">FuelStation</text>
	<line stroke="black" stroke-opacity="1" x1="440" y1="606" x2="528" y2="606" />
	<line stroke="black" stroke-opacity="1" x1="440" y1="615" x2="528" y2="615" />
</g>
<g>
	<rect fill="#808080" stroke="none" stroke-opacity="1" x="694" y="530" width="3" height="41" />
	<rect fill="#808080" stroke="none" stroke-opacity="1" x="566" y="568" width="131" height="3" />
	<rect fill="#dfffdf" stroke="black" stroke-width="1" stroke-opacity="1" x="562" y="526" width="132" height="42" />
	<text font-family="Helvetica" font-size="11" fill="#000000" xml:space="preserve" font-weight="bold" text-anchor="middle" x="628" y="539">SimPy.X.Resource</text>
	<line stroke="black" stroke-opacity="1" x1="562" y1="549" x2="694" y2="549" />
	<line stroke="black" stroke-opacity="1" x1="562" y1="558" x2="694" y2="558" />
</g>
<g>
	<rect fill="#808080" stroke="none" stroke-opacity="1" x="310" y="159" width="3" height="41" />
	<rect fill="#808080" stroke="none" stroke-opacity="1" x="266" y="197" width="47" height="3" />
	<rect fill="#ffffc0" stroke="black" stroke-width="1" stroke-opacity="1" x="262" y="155" width="48" height="42" />
	<text font-family="Helvetica" font-size="11" fill="#000000" xml:space="preserve" font-weight="bold" font-style="italic" text-anchor="middle" x="286" y="168">Actor</text>
	<line stroke="black" stroke-opacity="1" x1="262" y1="178" x2="310" y2="178" />
	<line stroke="black" stroke-opacity="1" x1="262" y1="187" x2="310" y2="187" />
</g>
<g>
	<rect fill="#808080" stroke="none" stroke-opacity="1" x="523" y="152" width="3" height="55" />
	<rect fill="#808080" stroke="none" stroke-opacity="1" x="401" y="204" width="125" height="3" />
	<rect fill="#ffffc0" stroke="black" stroke-width="1" stroke-opacity="1" x="397" y="148" width="126" height="56" />
	<text font-family="Helvetica" font-size="11" fill="#000000" xml:space="preserve" font-weight="bold" text-anchor="middle" x="460" y="161">Transaction</text>
	<line stroke="black" stroke-opacity="1" x1="397" y1="171" x2="523" y2="171" />
	<line stroke="black" stroke-opacity="1" x1="397" y1="180" x2="523" y2="180" />
	<text font-family="Helvetica" font-size="11" fill="#000000" xml:space="preserve" font-weight="bold" x="401" y="193">+</text>
	<text font-family="Helvetica" font-size="11" fill="#000000" xml:space="preserve" x="417" y="193">&lt;&lt;PEM&gt;&gt;</text>
	<text font-family="Helvetica" font-size="11" fill="#000000" xml:space="preserve" x="487" y="193">run()</text>
</g>
<g>
	<rect fill="#808080" stroke="none" stroke-opacity="1" x="682" y="422" width="3" height="41" />
	<rect fill="#808080" stroke="none" stroke-opacity="1" x="584" y="460" width="101" height="3" />
	<rect fill="#ffffc0" stroke="black" stroke-width="1" stroke-opacity="1" x="580" y="418" width="102" height="42" />
	<text font-family="Helvetica" font-size="11" fill="#000000" xml:space="preserve" font-weight="bold" font-style="italic" text-anchor="middle" x="631" y="431">SharedObject</text>
	<line stroke="black" stroke-opacity="1" x1="580" y1="441" x2="682" y2="441" />
	<line stroke="black" stroke-opacity="1" x1="580" y1="450" x2="682" y2="450" />
</g>
<g>
	<rect fill="#808080" stroke="none" stroke-opacity="1" x="671" y="158" width="3" height="41" />
	<rect fill="#808080" stroke="none" stroke-opacity="1" x="593" y="196" width="81" height="3" />
	<rect fill="#ffffc0" stroke="black" stroke-width="1" stroke-opacity="1" x="589" y="154" width="82" height="42" />
	<text font-family="Helvetica" font-size="11" fill="#000000" xml:space="preserve" font-weight="bold" text-anchor="middle" x="630" y="167">Simulation</text>
	<line stroke="black" stroke-opacity="1" x1="589" y1="177" x2="671" y2="177" />
	<line stroke="black" stroke-opacity="1" x1="589" y1="186" x2="671" y2="186" />
</g>
<g>
	<rect fill="#808080" stroke="none" stroke-opacity="1" x="515" y="254" width="3" height="55" />
	<rect fill="#808080" stroke="none" stroke-opacity="1" x="409" y="306" width="109" height="3" />
	<rect fill="#ffffc0" stroke="black" stroke-width="1" stroke-opacity="1" x="405" y="250" width="110" height="56" />
	<text font-family="Helvetica" font-size="11" fill="#000000" xml:space="preserve" font-weight="bold" text-anchor="middle" x="460" y="263">XValueContext</text>
	<line stroke="black" stroke-opacity="1" x1="405" y1="273" x2="515" y2="273" />
	<text font-family="Helvetica" font-size="11" fill="#000000" xml:space="preserve" font-weight="bold" x="409" y="286">-</text>
	<text font-family="Helvetica" font-size="11" fill="#000000" xml:space="preserve" x="425" y="286">t</text>
	<line stroke="black" stroke-opacity="1" x1="405" y1="296" x2="515" y2="296" />
</g>
<g>
	<rect fill="#808080" stroke="none" stroke-opacity="1" x="790" y="65" width="3" height="41" />
	<rect fill="#808080" stroke="none" stroke-opacity="1" x="654" y="103" width="139" height="3" />
	<rect fill="#dfffdf" stroke="black" stroke-width="1" stroke-opacity="1" x="650" y="61" width="140" height="42" />
	<text font-family="Helvetica" font-size="11" fill="#000000" xml:space="preserve" font-weight="bold" text-anchor="middle" x="720" y="74">SimPy.X.Simulation</text>
	<line stroke="black" stroke-opacity="1" x1="650" y1="84" x2="790" y2="84" />
	<line stroke="black" stroke-opacity="1" x1="650" y1="93" x2="790" y2="93" />
</g>
<g>
	<rect fill="#808080" stroke="none" stroke-opacity="1" x="535" y="8" width="3" height="41" />
	<rect fill="#808080" stroke="none" stroke-opacity="1" x="389" y="46" width="149" height="3" />
	<rect fill="#ffffc0" stroke="black" stroke-width="1" stroke-opacity="1" x="385" y="4" width="150" height="42" />
	<text font-family="Helvetica" font-size="11" fill="#000000" xml:space="preserve" font-weight="bold" text-anchor="middle" x="460" y="17">TransactionManager</text>
	<line stroke="black" stroke-opacity="1" x1="385" y1="27" x2="535" y2="27" />
	<line stroke="black" stroke-opacity="1" x1="385" y1="36" x2="535" y2="36" />
</g>
<g>
	<rect fill="#808080" stroke="none" stroke-opacity="1" x="326" y="43" width="3" height="41" />
	<rect fill="#808080" stroke="none" stroke-opacity="1" x="216" y="81" width="113" height="3" />
	<rect fill="#dfffdf" stroke="black" stroke-width="1" stroke-opacity="1" x="212" y="39" width="114" height="42" />
	<text font-family="Helvetica" font-size="11" fill="#000000" xml:space="preserve" font-weight="bold" text-anchor="middle" x="269" y="52">Etree.XMLNode</text>
	<line stroke="black" stroke-opacity="1" x1="212" y1="62" x2="326" y2="62" />
	<line stroke="black" stroke-opacity="1" x1="212" y1="71" x2="326" y2="71" />
</g>
<g>
	<line stroke-dasharray="4,4" stroke="black" stroke-opacity="1" x1="141" y1="232" x2="140" y2="133" />
</g>
<g>
	<line stroke="black" stroke-opacity="1" x1="579" y1="441" x2="573" y2="435" />
	<line stroke="black" stroke-opacity="1" x1="579" y1="441" x2="573" y2="447" />
	<line stroke-dasharray="4,4" stroke="black" stroke-opacity="1" x1="377" y1="441" x2="579" y2="441" />
</g>
<g>
	<line stroke="black" stroke-opacity="1" x1="630" y1="525" x2="630" y2="469" />
	<line stroke="black" stroke-opacity="1" x1="631" y1="464" x2="624" y2="469" />
	<line stroke="black" stroke-opacity="1" x1="631" y1="464" x2="636" y2="470" />
	<line stroke="black" stroke-opacity="1" x1="624" y1="469" x2="636" y2="470" />
</g>
<g>
	<line stroke="black" stroke-opacity="1" x1="67" y1="525" x2="116" y2="453" />
	<line stroke="black" stroke-opacity="1" x1="120" y1="449" x2="111" y2="450" />
	<line stroke="black" stroke-opacity="1" x1="120" y1="449" x2="121" y2="457" />
	<line stroke="black" stroke-opacity="1" x1="111" y1="450" x2="121" y2="457" />
</g>
<g>
	<line stroke="black" stroke-opacity="1" x1="138" y1="402" x2="138" y2="332" />
	<line stroke="black" stroke-opacity="1" x1="139" y1="327" x2="132" y2="332" />
	<line stroke="black" stroke-opacity="1" x1="139" y1="327" x2="144" y2="333" />
	<line stroke="black" stroke-opacity="1" x1="132" y1="332" x2="144" y2="333" />
</g>
<g>
	<line stroke="black" stroke-opacity="1" x1="280" y1="400" x2="184" y2="316" />
	<line stroke="black" stroke-opacity="1" x1="180" y1="313" x2="180" y2="321" />
	<line stroke="black" stroke-opacity="1" x1="180" y1="313" x2="188" y2="312" />
	<line stroke="black" stroke-opacity="1" x1="180" y1="321" x2="188" y2="312" />
</g>
<g>
	<line stroke="black" stroke-opacity="1" x1="396" y1="197" x2="180" y2="266" />
	<polygon fill="#000000" stroke="black" stroke-opacity="1" points="396,197 392,204 384,200 388,193" />
</g>
<g>
	<line stroke="black" stroke-opacity="1" x1="347" y1="525" x2="337" y2="486" />
	<line stroke="black" stroke-opacity="1" x1="336" y1="481" x2="331" y2="488" />
	<line stroke="black" stroke-opacity="1" x1="336" y1="481" x2="343" y2="485" />
	<line stroke="black" stroke-opacity="1" x1="331" y1="488" x2="343" y2="485" />
</g>
<g>
	<line stroke="black" stroke-opacity="1" x1="218" y1="525" x2="160" y2="453" />
	<line stroke="black" stroke-opacity="1" x1="157" y1="449" x2="156" y2="457" />
	<line stroke="black" stroke-opacity="1" x1="157" y1="449" x2="165" y2="449" />
	<line stroke="black" stroke-opacity="1" x1="156" y1="457" x2="165" y2="449" />
</g>
<g>
	<line stroke="black" stroke-opacity="1" x1="439" y1="584" x2="418" y2="574" />
	<line stroke="black" stroke-opacity="1" x1="413" y1="572" x2="415" y2="579" />
	<line stroke="black" stroke-opacity="1" x1="413" y1="572" x2="420" y2="569" />
	<line stroke="black" stroke-opacity="1" x1="415" y1="579" x2="420" y2="569" />
</g>
<g>
	<line stroke="black" stroke-opacity="1" x1="632" y1="200" x2="632" y2="417" />
	<polygon fill="#000000" stroke="black" stroke-opacity="1" points="632,200 638,206 632,212 626,206" />
</g>
<g>
	<line stroke="black" stroke-opacity="1" x1="314" y1="193" x2="411" y2="249" />
	<polygon fill="#000000" stroke="black" stroke-opacity="1" points="314,193 322,190 324,198 316,201" />
</g>
<g>
	<line stroke="black" stroke-opacity="1" x1="221" y1="176" x2="255" y2="176" />
	<line stroke="black" stroke-opacity="1" x1="261" y1="177" x2="255" y2="170" />
	<line stroke="black" stroke-opacity="1" x1="261" y1="177" x2="254" y2="182" />
	<line stroke="black" stroke-opacity="1" x1="255" y1="170" x2="254" y2="182" />
</g>
<g>
	<line stroke="black" stroke-opacity="1" x1="588" y1="177" x2="527" y2="177" />
	<polygon fill="#000000" stroke="black" stroke-opacity="1" points="588,177 582,183 576,177 582,171" />
</g>
<g>
	<line stroke="black" stroke-opacity="1" x1="462" y1="208" x2="462" y2="249" />
	<polygon fill="#000000" stroke="black" stroke-opacity="1" points="462,208 468,214 462,220 456,214" />
</g>
<g>
	<line stroke="black" stroke-opacity="1" x1="631" y1="153" x2="630" y2="27" />
	<polygon fill="#000000" stroke="black" stroke-opacity="1" points="631,153 624,147 630,141 636,146" />
</g>
<g>
	<line stroke="black" stroke-opacity="1" x1="590" y1="200" x2="510" y2="249" />
	<polygon fill="#000000" stroke="black" stroke-opacity="1" points="590,200 588,208 579,206 581,198" />
</g>
<g>
	<line stroke="black" stroke-opacity="1" x1="396" y1="178" x2="314" y2="178" />
	<polygon fill="#000000" stroke="black" stroke-opacity="1" points="396,178 390,184 384,178 390,172" />
</g>
<g>
	<line stroke="black" stroke-opacity="1" x1="462" y1="147" x2="462" y2="127" />
	<line stroke="black" stroke-opacity="1" x1="462" y1="121" x2="456" y2="127" />
	<line stroke="black" stroke-opacity="1" x1="462" y1="121" x2="468" y2="127" />
	<line stroke="black" stroke-opacity="1" x1="456" y1="127" x2="468" y2="127" />
</g>
<g>
	<line stroke="black" stroke-opacity="1" x1="180" y1="280" x2="404" y2="280" />
	<polygon fill="#000000" stroke="black" stroke-opacity="1" points="180,280 186,274 192,280 186,286" />
</g>
<g>
	<line stroke="black" stroke-opacity="1" x1="652" y1="153" x2="691" y2="111" />
	<line stroke="black" stroke-opacity="1" x1="696" y1="107" x2="687" y2="107" />
	<line stroke="black" stroke-opacity="1" x1="696" y1="107" x2="696" y2="115" />
	<line stroke="black" stroke-opacity="1" x1="687" y1="107" x2="696" y2="115" />
</g>
<g>
	<line stroke="black" stroke-opacity="1" x1="462" y1="50" x2="462" y2="68" />
	<line stroke="black" stroke-opacity="1" x1="462" y1="74" x2="468" y2="68" />
	<line stroke="black" stroke-opacity="1" x1="462" y1="74" x2="456" y2="68" />
	<line stroke="black" stroke-opacity="1" x1="468" y1="68" x2="456" y2="68" />
</g>
<g>
	<line stroke-dasharray="4,4" stroke="black" stroke-opacity="1" x1="499" y1="50" x2="576" y2="99" />
</g>
<g>
	<line stroke="black" stroke-opacity="1" x1="311" y1="85" x2="312" y2="93" />
	<line stroke="black" stroke-opacity="1" x1="311" y1="85" x2="319" y2="83" />
	<line stroke-dasharray="4,4" stroke="black" stroke-opacity="1" x1="411" y1="147" x2="311" y2="85" />
</g>
<g>
	<line stroke="black" stroke-opacity="1" x1="274" y1="85" x2="268" y2="91" />
	<line stroke="black" stroke-opacity="1" x1="274" y1="85" x2="280" y2="90" />
	<line stroke-dasharray="4,4" stroke="black" stroke-opacity="1" x1="283" y1="154" x2="274" y2="85" />
</g>
<g>
	<line stroke="black" stroke-opacity="1" x1="330" y1="48" x2="336" y2="52" />
	<line stroke="black" stroke-opacity="1" x1="330" y1="48" x2="334" y2="41" />
	<line stroke-dasharray="4,4" stroke="black" stroke-opacity="1" x1="384" y1="39" x2="330" y2="48" />
</g>
<g>
	<line stroke="black" stroke-opacity="1" x1="504" y1="147" x2="512" y2="148" />
	<line stroke="black" stroke-opacity="1" x1="504" y1="147" x2="505" y2="138" />
	<line stroke-dasharray="4,4" stroke="black" stroke-opacity="1" x1="576" y1="99" x2="504" y2="147" />
</g>
<g>
	<line stroke="black" stroke-opacity="1" x1="630" y1="27" x2="539" y2="27" />
</g>
<g>
	<line stroke="black" stroke-opacity="1" x1="223" y1="85" x2="214" y2="82" />
	<line stroke="black" stroke-opacity="1" x1="223" y1="85" x2="220" y2="93" />
	<line stroke-dasharray="4,4" stroke="black" stroke-opacity="1" x1="140" y1="133" x2="223" y2="85" />
</g>
<g>
	<polygon fill="#f6f6f6" stroke="black" stroke-opacity="1" points="390,449 563,449 563,461 575,461 575,512 390,512 390,449" />
	<line stroke="black" stroke-opacity="1" x1="563" y1="449" x2="575" y2="461" />
	<text font-family="Helvetica" font-size="11" fill="#000000" xml:space="preserve" x="402" y="479">1 shared object per</text>
	<text font-family="Helvetica" font-size="11" fill="#000000" xml:space="preserve" x="402" y="498">simulation and entity.id</text>
</g>
<g>
	<rect fill="#808080" stroke="none" stroke-opacity="1" x="180" y="530" width="3" height="41" />
	<rect fill="#808080" stroke="none" stroke-opacity="1" x="96" y="568" width="87" height="3" />
	<rect fill="#ffffc0" stroke="black" stroke-width="1" stroke-opacity="1" x="92" y="526" width="88" height="42" />
	<text font-family="Helvetica" font-size="11" fill="#000000" xml:space="preserve" font-weight="bold" text-anchor="middle" x="136" y="539">CheckPoint</text>
	<line stroke="black" stroke-opacity="1" x1="92" y1="549" x2="180" y2="549" />
	<line stroke="black" stroke-opacity="1" x1="92" y1="558" x2="180" y2="558" />
</g>
<g>
	<line stroke-dasharray="4,4" stroke="black" stroke-opacity="1" x1="478" y1="448" x2="478" y2="441" />
</g>
<g>
	<line stroke="black" stroke-opacity="1" x1="138" y1="525" x2="138" y2="455" />
	<line stroke="black" stroke-opacity="1" x1="138" y1="449" x2="132" y2="455" />
	<line stroke="black" stroke-opacity="1" x1="138" y1="449" x2="144" y2="455" />
	<line stroke="black" stroke-opacity="1" x1="132" y1="455" x2="144" y2="455" />
</g>
<g>
	<rect fill="#808080" stroke="none" stroke-opacity="1" x="509" y="333" width="3" height="75" />
	<rect fill="#808080" stroke="none" stroke-opacity="1" x="419" y="405" width="93" height="3" />
	<rect fill="#ffffc0" stroke="black" stroke-width="1" stroke-opacity="1" x="415" y="329" width="94" height="76" />
	<text font-family="Helvetica" font-size="11" fill="#000000" xml:space="preserve" font-weight="bold" text-anchor="middle" x="462" y="342">XValue</text>
	<line stroke="black" stroke-opacity="1" x1="415" y1="352" x2="509" y2="352" />
	<line stroke="black" stroke-opacity="1" x1="415" y1="361" x2="509" y2="361" />
	<text font-family="Helvetica" font-size="11" fill="#000000" xml:space="preserve" font-weight="bold" x="419" y="374">+</text>
	<text font-family="Helvetica" font-size="11" fill="#000000" xml:space="preserve" x="435" y="374">__float__()</text>
	<text font-family="Helvetica" font-size="11" fill="#000000" xml:space="preserve" font-weight="bold" x="419" y="395">+</text>
	<text font-family="Helvetica" font-size="11" fill="#000000" xml:space="preserve" x="435" y="395">__int__()</text>
</g>
<g>
	<line stroke="black" stroke-opacity="1" x1="462" y1="310" x2="462" y2="328" />
	<polygon fill="#000000" stroke="black" stroke-opacity="1" points="462,310 468,316 462,322 456,316" />
</g>
<g>
	<text font-family="Helvetica" font-size="11" fill="#000000" xml:space="preserve" x="447" y="241">1</text>
</g>
<g>
	<text font-family="Helvetica" font-size="11" fill="#000000" xml:space="preserve" x="386" y="297">1</text>
</g>
<g>
	<text font-family="Helvetica" font-size="11" fill="#000000" xml:space="preserve" x="528" y="191">*</text>
</g>
<g>
	<text font-family="Helvetica" font-size="11" fill="#000000" xml:space="preserve" x="184" y="255">*</text>
</g>
<g>
	<text font-family="Helvetica" font-size="11" fill="#000000" xml:space="preserve" x="620" y="416">*</text>
</g>
<g>
	<text font-family="Helvetica" font-size="11" fill="#000000" xml:space="preserve" x="399" y="237">1</text>
</g>
<g>
	<text font-family="Helvetica" font-size="11" fill="#000000" xml:space="preserve" x="541" y="39">*</text>
</g>
<g>
	<text font-family="Helvetica" font-size="11" fill="#000000" xml:space="preserve" x="319" y="166">1</text>
</g>
<g>
	<text font-family="Helvetica" font-size="11" fill="#000000" xml:space="preserve" x="531" y="127">&lt;&lt;create&gt;&gt;</text>
</g>
<g>
	<text font-family="Helvetica" font-size="11" fill="#000000" xml:space="preserve" x="524" y="256">1</text>
</g>
</svg>
